# xmcd
# 
# Track frame offsets:
#     150
#     18527
#     63957
#     95979
#     115835
#     141082
#     154540
#     187402
#     209522
#     235155
#     257520
# 
# Disc length: 3537
# 
# Revision: 1
# Processed by: cddbd v1.5.2PL0 Copyright (c) Steve Scherf et al.
# Submitted via: fre:ac v1.0.31
# 
DISCID=9e0dcf0b
DTITLE=Focus On The Family - A Christmas Carol - Radio Theatre Disc 1
DYEAR=1996
DGENRE=Audio book
TTITLE0=Prologue
TTITLE1=Ebenezer Scrooge
TTITLE2="Jacob Marley!
TTITLE3=The First Visitor
TTITLE4=Fezziwig's Ball
TTITLE5="Promise me..."
TTITLE6=Another Idol..."
TTITLE7=The Jolly Giant
TTITLE8=The Cratchit's Christmas
TTITLE9=Fred's Party
TTITLE10="I fear you most..."
EXTD=
EXTT0=
EXTT1=
EXTT2=
EXTT3=
EXTT4=
EXTT5=
EXTT6=
EXTT7=
EXTT8=
EXTT9=
EXTT10=
PLAYORDER=
